<?xml version="1.0" encoding="utf-8"?>
<!-- Generator: Adobe Illustrator 25.2.1, SVG Export Plug-In . SVG Version: 6.00 Build 0)  -->
<svg version="1.1" id="Layer_1" xmlns="http://www.w3.org/2000/svg" xmlns:xlink="http://www.w3.org/1999/xlink" x="0px" y="0px"
	 viewBox="0 0 432 95" style="enable-background:new 0 0 432 95;" xml:space="preserve">
<style type="text/css">
	.st0{fill:#FFFFFF;}
	.st1{fill:#FFFFFF;}
</style>
<g>
	<g>
		<path class="st0" d="M8.2,90.05C20.62,60.88,33.03,31.71,45.58,2.23C63.69,32.41,81.6,62.27,99.8,92.62
			c-6.15-0.41-11.84,0.68-17.45-0.84c-4.34-1.17-7.43-4.03-9.68-7.72c-8.31-13.67-16.51-27.4-24.68-41.15
			c-0.34-0.57-0.2-1.7,0.15-2.34c1.52-2.79,3.2-5.5,4.83-8.23c-0.16-0.11-0.32-0.23-0.48-0.34C37.87,51.45,23.24,70.89,8.62,90.33
			C8.48,90.24,8.34,90.14,8.2,90.05z"/>
		<path class="st0" d="M37.69,58.09c8.42,11.51,16.67,22.79,24.92,34.07c-0.07,0.2-0.15,0.41-0.22,0.61
			c-5.33-0.24-10.71-0.1-15.97-0.85c-4.54-0.65-7.89-3.85-10.66-7.42c-2.34-3.01-4.59-6.09-6.75-9.23
			c-0.38-0.55-0.42-1.73-0.09-2.31C31.72,68.06,34.64,63.23,37.69,58.09z"/>
	</g>
</g>
</svg>
