<?xml version="1.0" encoding="utf-8"?>
<!-- Generator: Adobe Illustrator 25.2.1, SVG Export Plug-In . SVG Version: 6.00 Build 0)  -->
<svg version="1.1" id="Layer_1" xmlns="http://www.w3.org/2000/svg" xmlns:xlink="http://www.w3.org/1999/xlink" x="0px" y="0px"
	 viewBox="0 0 432 432" style="enable-background:new 0 0 432 432;" xml:space="preserve">
<style type="text/css">
	.st0{fill:#FFFFFF;}
	.st1{fill:#FFFFFF;}
</style>
<g>
	<g>
		<path class="st0" d="M170.2,258.55c12.42-29.17,24.83-58.34,37.38-87.81c18.1,30.18,36.01,60.04,54.22,90.39
			c-6.15-0.41-11.84,0.68-17.45-0.84c-4.34-1.17-7.43-4.03-9.68-7.72c-8.31-13.67-16.51-27.4-24.68-41.15
			c-0.34-0.57-0.2-1.7,0.15-2.34c1.52-2.79,3.2-5.5,4.83-8.23c-0.16-0.11-0.32-0.23-0.48-0.34c-14.62,19.44-29.25,38.88-43.87,58.32
			C170.48,258.74,170.34,258.64,170.2,258.55z"/>
		<path class="st0" d="M199.69,226.59c8.42,11.51,16.67,22.79,24.92,34.07c-0.07,0.2-0.15,0.41-0.22,0.61
			c-5.33-0.24-10.71-0.1-15.97-0.85c-4.54-0.65-7.89-3.85-10.66-7.42c-2.34-3.01-4.59-6.09-6.75-9.23
			c-0.38-0.55-0.42-1.73-0.09-2.31C193.72,236.56,196.64,231.73,199.69,226.59z"/>
	</g>
</g>
</svg>
