<svg width="580" height="484" viewBox="0 0 580 484" fill="none" xmlns="http://www.w3.org/2000/svg">
<g clip-path="url(#clip0_719_40898)">
<rect width="690.619" height="734.886" transform="matrix(-0.848846 -0.52864 -0.52864 0.848846 579.719 365.089)" fill="#072361"/>
<path d="M606.37 -5.33191L599.953 -4.08558L589.869 -3.1608L579.785 0.245452L569.701 0.30127L566.453 -5.33191L569.701 -6.84413L579.785 -10.3204L584.014 -15.4211L589.869 -16.7881L599.953 -18.5519L610.037 -19.2348L620.121 -17.8314L629.865 -15.4211L620.121 -7.42414L610.037 -5.73949L606.37 -5.33191Z" stroke="#DADADA" stroke-opacity="0.1" stroke-width="0.69" stroke-linejoin="round"/>
<path d="M595.516 4.75935L589.869 6.74876L579.785 9.65563L569.701 10.9738L562.048 4.75935L559.763 -5.32995L569.701 -9.95702L578.145 -15.4192L579.785 -15.8571L589.869 -18.2832L599.953 -20.2376L610.037 -21.0793L620.121 -19.7632L630.205 -17.4069L634.656 -15.4192L636.927 -5.32995L630.205 1.21447L620.121 2.237L610.037 2.76722L599.953 4.10648L595.516 4.75935Z" stroke="#DADADA" stroke-opacity="0.1" stroke-width="0.69" stroke-linejoin="round"/>
<path d="M576.075 4.75924L569.707 5.6366L568.626 4.75924L563.307 -5.33006L569.707 -8.30942L579.79 -13.962L580.999 -15.4193L589.874 -17.4914L599.958 -19.3449L610.042 -20.1027L620.126 -18.7404L630.21 -16.3078L632.2 -15.4193L630.21 -8.33275L624.608 -5.33006L620.126 -3.70271L610.042 -1.92407L599.958 -0.226051L589.874 0.991709L579.79 4.32057L576.075 4.75924Z" stroke="#DADADA" stroke-opacity="0.1" stroke-width="0.69" stroke-linejoin="round"/>
<path d="M529.372 57.6335L534.054 55.2047L539.456 52.2943L545.474 45.1154L548.457 35.0261L549.039 24.9369L546.431 14.8476L547.614 4.75826L549.54 -0.79814L550.994 -5.33104L559.624 -8.99262L569.708 -14.1789L571.627 -15.4203L579.792 -17.6003L589.876 -20.313L599.96 -22.5256L610.043 -23.5827L620.127 -22.3847L630.211 -20.224L640.295 -15.7297L640.687 -15.4203L649.277 -5.33104L650.379 -4.27453L660.463 1.30545L670.547 4.30892L672.653 4.75826L680.631 8.90681L690.714 10.6364L700.798 14.239L702.823 14.8476L710.882 19.7928L720.966 20.9745L731.05 21.6366L741.134 22.8857L751.218 23.525L761.302 23.7809L771.386 24.1443L776.685 24.9369L781.47 29.1034L791.553 32.4411L801.637 33.297L811.134 35.0261L811.721 36.2616L821.805 38.5052L825.734 35.0261L831.889 32.347L841.973 26.6184L845.334 24.9369L852.057 24.0449L862.141 22.7138L872.225 20.0152L882.308 23.7064L892.392 24.0196L902.476 24.3602L912.56 24.739L922.644 24.2115L932.728 24.2947L942.812 24.2838L952.896 24.1524L962.98 24.1986L973.064 22.1418L981.559 14.8476L983.147 13.0618L988.372 4.75826L993.231 -4.88512L993.487 -5.33104L996.798 -15.4203L999.11 -25.5096L1002.35 -35.5989L1003.32 -37.7038L1007.07 -45.6882L1010.45 -55.7774L1013.4 -60.758L1016.6 -65.8667L1023.06 -75.956L1023.48 -79.2349L1025.4 -86.0453L1023.48 -92.6894L1022.96 -96.1345L1022.13 -106.224L1020.46 -116.313L1013.4 -125.704L1011.92 -126.402L1005.78 -136.492L1003.32 -139.412L993.231 -137.401L992.052 -136.492L983.147 -133.151L973.064 -128.068L968.26 -126.402L962.98 -124.378L952.896 -120.824L942.812 -119.331L932.728 -119.051L922.644 -121.836L915.863 -126.402L912.56 -130.679L903.713 -136.492L902.476 -137.193L892.392 -143.108L884.149 -146.581L882.308 -148.045L880.787 -146.581L872.775 -136.492L872.225 -135.838L864.528 -126.402L862.141 -125.226L852.057 -125.404L841.973 -123.717L831.889 -123.19L823.39 -126.402L821.805 -129.614L815.72 -136.492L811.721 -140.249L801.637 -143.563L791.553 -142.572L784.999 -136.492L781.672 -126.402L781.47 -126.153L780.828 -126.402L774.837 -136.492L771.386 -139.899L765.083 -146.581L761.302 -152.822L757.533 -156.67L751.218 -165.481L749.991 -166.759L749.839 -176.849L741.134 -186.462L740.821 -186.938L735.175 -197.027L741.134 -206.964L741.302 -207.117L741.134 -207.224L733.975 -217.206L731.05 -222.121L728.084 -227.295L730.913 -237.384L731.05 -237.738L734.849 -247.474L739.583 -257.563L731.05 -259.104L720.966 -259.753L710.882 -262.689L700.798 -264.301L690.714 -261.336L680.631 -258.608L678.753 -257.563L670.547 -251.626L661.915 -247.474L660.463 -246.834L650.379 -246.136L642.034 -247.474L640.295 -248.041L640.2 -247.474L640.295 -247.281L646.555 -237.384L647.46 -227.295L645.514 -217.206L650.379 -213.11L660.463 -210.119L668.328 -207.117L670.547 -203.876L674.778 -197.027L680.631 -189.628L683.399 -186.938L689.244 -176.849L680.631 -174.869L670.547 -174.87L660.463 -171.677L650.969 -166.759L650.379 -166.352L644.007 -156.67L642.549 -146.581L640.295 -142.411L630.211 -138.115L620.127 -140.821L610.043 -146.064L608.666 -146.581L599.96 -151.826L594.654 -156.67L589.876 -163.196L588.235 -166.759L582.801 -176.849L579.792 -180.583L569.708 -185.084L568.667 -186.938L569.708 -191.497L575.824 -197.027L569.708 -203.877L568.989 -207.117L559.624 -214.173L555.566 -217.206L549.54 -222.225L541.07 -227.295L539.456 -229.546L535.696 -237.384L529.485 -247.474L529.372 -248.915L528.218 -257.563L529.372 -266.98L529.708 -267.652L530.52 -277.742L530.09 -287.831L529.372 -289.003L519.288 -292.896L513.992 -297.92L509.205 -300.261L501.315 -308.009L499.121 -310.8L489.037 -318.074L488.996 -318.099L478.953 -324.665L468.869 -326.11L458.785 -325.773L450.696 -328.188L448.701 -329.175L438.617 -332.026L431.295 -338.277L428.533 -342.704L424.735 -348.366L418.449 -354.034L408.366 -357.918L405.139 -358.456L398.282 -359.378L389.845 -368.545L388.198 -374.599L384.837 -378.634L378.114 -379.992L368.03 -379.467L357.946 -379.573L347.862 -382.67L344.173 -388.724L347.862 -395.304L348.27 -398.813L347.862 -399.95L341.245 -408.902L337.778 -411.654L327.694 -409.904L317.611 -409.505L311.708 -408.902L307.527 -403.858L304.352 -398.813L301.764 -388.724L302.75 -378.634L307.527 -375.752L313.42 -368.545L317.611 -367.57L327.694 -365.553L336.961 -358.456L337.778 -358.023L347.862 -354.575L355.347 -348.366L357.946 -343.862L361.237 -338.277L368.03 -330.497L370.232 -328.188L378.114 -323.704L382.378 -318.099L388.198 -311.56L392.461 -308.009L398.282 -304.976L408.366 -300.628L418.449 -298.892L428.533 -301.167L438.44 -297.92L438.617 -297.661L440.912 -287.831L448.701 -281.482L451.016 -277.742L458.785 -271.645L464.513 -267.652L468.869 -259.791L474.541 -257.563L468.869 -256.856L458.785 -255.479L450.77 -247.474L448.701 -241.674L447.596 -237.384L448.701 -234.009L451.045 -227.295L458.785 -218.928L459.973 -217.206L458.785 -213.88L453.422 -207.117L448.701 -197.813L448.272 -197.027L440.566 -186.938L438.617 -185.462L428.533 -184.324L420.715 -186.938L428.533 -195.148L429.622 -197.027L431.017 -207.117L428.533 -216.5L428.423 -217.206L420.729 -227.295L418.449 -230.645L410.929 -237.384L408.366 -239.949L399.914 -247.474L398.282 -249.251L389.544 -257.563L388.198 -259.25L378.983 -267.652L378.114 -268.795L368.03 -270.959L357.946 -270.862L347.862 -272.002L337.778 -274.22L327.694 -276.772L326.029 -277.742L319.291 -287.831L317.611 -290.371L307.527 -297.873L307.427 -297.92L297.443 -305.311L288.679 -308.009L287.359 -309.076L277.275 -316.791L273.353 -318.099L267.191 -322.629L262.869 -328.188L259.517 -338.277L257.107 -342.634L253.345 -348.366L247.023 -351.34L238.543 -358.456L236.939 -359.112L226.856 -364.278L216.772 -367.01L206.688 -366.285L196.604 -360.881L194.155 -358.456L186.52 -354.98L176.436 -352.456L166.352 -348.587L165.83 -348.366L156.268 -342.089L149.361 -338.277L146.184 -337.103L136.1 -336.543L126.017 -335.976L115.933 -335.896L105.849 -336.683L95.7649 -337.74L86.8269 -338.277L85.6811 -339.806L83.4889 -338.277L75.5971 -337.551L66.9538 -338.277L65.5133 -338.808L55.4294 -338.902L53.9275 -338.277L45.3455 -333.415L43.0753 -328.188L44.4113 -318.099L43.3199 -308.009L38.5994 -297.92L35.2616 -294.929L25.1777 -289.168L22.9297 -287.831L15.0938 -282.491L7.19414 -277.742L5.0099 -276.743L-5.07399 -273.113L-12.3514 -267.652L-15.1579 -265.235L-24.2434 -257.563L-25.2418 -255.37L-30.914 -247.474L-35.3257 -243.476L-45.1786 -237.384L-45.4096 -237.183L-49.7822 -227.295L-53.665 -217.206L-45.8721 -207.117L-45.4096 -206.191L-41.7925 -197.027L-45.4096 -189.193L-47.1619 -186.938L-55.4934 -180.489L-63.4874 -176.849L-65.5773 -176.317L-75.6612 -174.238L-83.9815 -166.759L-85.7451 -165.487L-95.2179 -156.67L-95.829 -155.631L-105.913 -146.663L-105.946 -146.581L-115.997 -141.937L-126.081 -140.039L-136.165 -137.25L-138.437 -136.492L-146.248 -134.648L-155.979 -136.492L-156.332 -136.552L-166.416 -137.301L-172.467 -136.492L-176.5 -135.902L-186.584 -133.857L-196.668 -127.336L-204.606 -126.402L-206.752 -125.092L-211.949 -116.313L-206.752 -114.98L-196.668 -107.741L-195.483 -106.224L-186.584 -100.648L-176.5 -97.3818L-166.416 -98.0033L-156.332 -97.8082L-146.248 -96.63L-136.165 -98.5854L-126.081 -96.6897L-121.716 -96.1345L-115.997 -95.2863L-105.913 -95.8398L-95.829 -95.0789L-92.8832 -96.1345L-85.7451 -97.9051L-75.6612 -105.305L-74.3407 -106.224L-65.5773 -107.893L-55.4934 -107.944L-45.4096 -109.628L-35.4331 -116.313L-35.3257 -116.38L-25.2418 -120.456L-15.1579 -124.757L-12.5227 -126.402L-5.07399 -128.188L5.0099 -130.206L15.0938 -131.888L25.1777 -131.491L35.2616 -135.787L36.2438 -136.492L45.3455 -139.332L55.4294 -139.232L65.5133 -140.339L75.5971 -141.836L85.6811 -141.51L95.7649 -139.897L105.849 -137.754L115.933 -138.195L126.017 -141.058L136.1 -141.341L146.184 -145.082L156.268 -144.426L166.352 -143.296L176.436 -142.113L186.52 -139.968L196.604 -142.779L203.307 -146.581L206.688 -148.521L216.219 -156.67L216.772 -157.318L226.856 -161.906L236.939 -161.36L245.511 -156.67L247.023 -153.46L257.107 -148.201L267.191 -147.975L269.742 -146.581L276.402 -136.492L271.836 -126.402L270.444 -116.313L277.275 -110.172L280.404 -106.224L283.624 -96.1345L283.517 -86.0453L277.275 -78.9555L274.695 -75.956L267.191 -69.9771L258.975 -65.8667L265.89 -55.7774L267.191 -54.0959L277.275 -51.8028L285.032 -45.6882L287.359 -42.6614L293.006 -35.5989L297.443 -31.6352L307.527 -26.2176L308.871 -25.5096L317.611 -23.058L327.694 -22.5254L337.778 -22.9413L347.862 -23.4917L357.946 -22.4096L368.03 -21.3845L378.114 -16.9568L381.221 -15.4203L388.198 -10.3113L398.282 -7.86483L402.865 -5.33104L408.366 2.69179L411.662 4.75826L418.449 11.064L421.921 14.8476L428.533 18.728L438.617 22.5841L448.701 23.3517L458.785 24.2365L465.003 24.9369L468.869 26.4838L478.953 29.9815L489.037 33.9401L490.833 35.0261L499.121 42.5405L503.238 45.1154L509.205 49.9884L519.288 54.7298L523.13 55.2047L529.372 57.6335Z" stroke="#DADADA" stroke-opacity="0.1" stroke-width="0.69" stroke-linejoin="round"/>
<path d="M579.782 62.7742L580.52 55.2072L579.782 54.0862L576.757 55.2072L579.782 62.7742Z" stroke="#DADADA" stroke-opacity="0.1" stroke-width="0.69" stroke-linejoin="round"/>
<path d="M579.79 65.2924L580.774 55.2031L579.79 53.7083L575.757 55.2031L579.79 65.2924Z" stroke="#DADADA" stroke-opacity="0.1" stroke-width="0.69" stroke-linejoin="round"/>
<path d="M733.566 75.3843L731.045 76.406L728.356 75.3843L720.961 71.7456L710.878 69.7462L705.998 65.295L700.794 57.9574L698.553 55.2057L690.71 50.0381L680.626 46.9273L677.097 45.1164L671.802 35.0271L670.542 32.3367L665.92 24.9379L660.458 21.7389L650.374 23.0609L640.29 22.7759L630.206 21.9704L620.122 20.5513L610.039 17.7313L599.955 18.8843L589.871 15.269L589.095 14.8486L579.787 13.9584L572.669 14.8486L569.703 15.6894L568.41 14.8486L559.619 9.57115L557.057 4.75934L557.04 -5.32996L559.619 -6.42447L569.703 -11.2662L576.123 -15.4192L579.787 -16.3974L589.871 -18.9125L599.955 -20.9469L610.039 -21.8555L620.122 -20.5759L630.206 -18.2804L636.614 -15.4192L640.29 -7.7288L642.164 -5.32996L650.374 2.5408L660.458 4.1988L662.542 4.75934L670.542 12.153L680.626 13.1892L690.71 13.4668L695.184 14.8486L700.794 20.5015L710.878 22.9995L720.961 23.3419L731.045 23.665L741.129 24.2299L751.213 24.4459L761.297 24.5752L771.381 24.9083L771.579 24.9379L781.465 33.5465L791.549 34.9307L792.911 35.0271L791.549 35.6824L781.465 38.9007L772.767 45.1164L771.381 45.8871L761.297 50.8191L751.213 54.9535L750.989 55.2057L741.888 65.295L741.129 67.5732L733.566 75.3843Z" stroke="#DADADA" stroke-opacity="0.1" stroke-width="0.69" stroke-linejoin="round"/>
<path d="M-299.09 75.385L-307.597 81.0526L-317.681 83.8728L-324.094 75.385L-317.681 66.3218L-317.311 65.2958L-309.12 55.2065L-307.597 53.8387L-297.513 48.1279L-294.307 45.1172L-297.513 42.5103L-307.597 37.4724L-312.38 35.0279L-317.681 29.9246L-322.635 24.9387L-317.681 21.7447L-307.597 18.1242L-297.513 17.0147L-287.429 15.6273L-285.105 14.8494L-277.345 11.8001L-267.261 10.4489L-257.178 8.11437L-251.875 4.76009L-247.094 0.63433L-241.779 -5.32921L-237.01 -11.2983L-231.855 -15.4184L-226.926 -21.7975L-224.781 -25.5077L-224.998 -35.597L-220.964 -45.6863L-216.842 -47.6618L-207.414 -55.7755L-206.758 -56.0588L-196.674 -58.7177L-186.59 -59.4296L-176.506 -64.7613L-171.03 -65.8648L-176.506 -71.4405L-178.051 -75.9541L-186.59 -84.2977L-188.587 -86.0434L-186.59 -87.0506L-176.506 -86.7843L-166.423 -86.507L-165.019 -86.0434L-164.578 -75.9541L-164.285 -65.8648L-156.339 -59.4326L-146.255 -61.2571L-136.171 -63.2771L-126.087 -64.9307L-122.799 -65.8648L-116.003 -67.2549L-105.919 -67.9354L-95.8353 -72.591L-91.7709 -75.9541L-85.7514 -78.5715L-75.6675 -80.7749L-65.5837 -82.1568L-55.4997 -83.1835L-45.4159 -82.6637L-37.5342 -86.0434L-35.332 -86.7864L-25.2481 -90.4875L-15.1642 -95.0613L-14.1641 -96.1326L-5.08029 -99.7502L5.0036 -101.223L11.2433 -96.1326L14.6321 -86.0434L15.0875 -84.2778L25.1714 -78.4549L35.2553 -83.5747L45.1246 -86.0434L45.3392 -86.1289L55.4231 -93.3685L65.5069 -93.626L75.5908 -87.3746L76.4027 -86.0434L75.5908 -85.2917L67.1218 -75.9541L65.5069 -74.3209L55.4231 -70.1451L45.3392 -68.1306L40.1504 -65.8648L35.2553 -63.3298L25.1714 -59.0835L21.293 -55.7755L15.0875 -49.7596L9.28701 -45.6863L5.0036 -42.8706L-5.08029 -37.8201L-12.0718 -35.597L-15.1642 -34.0396L-25.2481 -30.0824L-33.3374 -25.5077L-35.332 -24.4267L-45.4159 -18.9299L-49.3282 -15.4184L-55.4997 -11.0044L-65.5837 -8.46886L-73.0007 -5.32921L-75.6675 -3.43002L-85.7514 2.71005L-89.1573 4.76009L-95.8353 7.91302L-105.919 8.98534L-116.003 6.37582L-119.441 4.76009L-126.087 -1.37815L-136.171 -0.609985L-146.255 1.17276L-149.119 4.76009L-153.785 14.8494L-156.339 17.5261L-166.423 15.3003L-167.372 14.8494L-176.506 12.2337L-186.59 14.0905L-190.317 14.8494L-196.674 17.7321L-202.594 24.9387L-206.758 29.5534L-216.842 33.68L-220.273 35.0279L-226.926 40.8981L-230.324 45.1172L-237.01 51.6392L-247.094 50.9986L-257.178 54.3679L-258.322 55.2065L-267.261 59.1415L-277.345 61.4178L-287.429 63.7027L-289.097 65.2958L-297.513 74.1832L-299.09 75.385Z" stroke="#DADADA" stroke-opacity="0.1" stroke-width="0.69" stroke-linejoin="round"/>
<path d="M450.421 85.472L448.699 87.9073L446.527 85.472L440.695 75.3827L448.699 69.1678L455.116 75.3827L450.421 85.472Z" stroke="#DADADA" stroke-opacity="0.1" stroke-width="0.69" stroke-linejoin="round"/>
<path d="M-231.201 95.5642L-237.007 97.2311L-247.09 99.3477L-255.582 95.5642L-250.056 85.4749L-247.09 83.182L-237.007 77.1054L-231.604 75.3856L-226.923 71.2869L-218.214 65.2964L-226.923 64.3184L-237.007 63.7049L-247.09 62.3403L-257.174 64.28L-265.788 65.2964L-267.258 65.8481L-277.342 71.1337L-287.426 74.9532L-287.835 75.3856L-297.51 84.9368L-298.361 85.4749L-307.594 91.8394L-317.678 95.1187L-322.872 95.5642L-327.762 96.3555L-330.206 95.5642L-337.846 93.7496L-347.929 86.896L-348.158 85.4749L-347.929 85.0456L-341.391 75.3856L-337.846 73.0763L-327.762 68.7814L-324.748 65.2964L-317.678 56.058L-316.986 55.2071L-307.594 46.7698L-304.989 45.1178L-307.594 43.6698L-317.678 39.3747L-327.762 36.1809L-330.802 35.0285L-336.68 24.9393L-327.762 19.045L-319.332 14.85L-317.678 13.9355L-307.594 12.2397L-297.51 10.254L-287.426 7.71685L-277.342 6.20804L-267.258 5.37296L-264.737 4.76072L-257.174 -0.742476L-250.703 -5.32858L-247.09 -9.80523L-244.033 -15.4178L-247.09 -19.3597L-257.174 -20.8918L-265.934 -25.5071L-259.061 -35.5964L-257.174 -36.9572L-247.09 -44.0521L-244.659 -45.6857L-237.007 -49.8862L-227.784 -55.7749L-226.923 -56.1662L-216.839 -59.6894L-206.755 -63.1029L-196.671 -64.2405L-186.587 -65.3168L-185.584 -65.8642L-186.587 -68.3041L-190.985 -75.9535L-196.671 -80.8512L-201.345 -86.0428L-206.755 -93.5586L-208.845 -96.132L-206.755 -99.2026L-196.671 -98.472L-191.279 -96.132L-186.587 -93.8444L-176.503 -91.1201L-166.419 -91.3619L-156.335 -88.7611L-152.317 -86.0428L-151.469 -75.9535L-146.252 -71.1811L-136.168 -74.5829L-134.142 -75.9535L-126.084 -82.4147L-116 -81.4567L-105.916 -81.4921L-95.8321 -82.9807L-88.9273 -86.0428L-85.7482 -87.2798L-75.6643 -92.3809L-65.5804 -94.8122L-55.4965 -95.334L-48.4378 -96.132L-45.4126 -96.5889L-35.3287 -101.533L-26.3508 -106.221L-25.2448 -106.793L-15.1609 -109.728L-5.07703 -114.253L-3.08326 -116.311L5.00687 -122.41L15.0908 -125.439L25.1746 -122.737L34.1213 -126.4L35.2585 -126.635L45.3425 -131.634L55.4263 -130.832L65.5102 -134.79L68.3477 -136.489L75.5941 -137.672L85.678 -137.087L90.7199 -136.489L95.7619 -134.281L105.846 -131.223L115.93 -131.37L126.014 -131.776L134.551 -126.4L136.097 -125.66L143.1 -126.4L146.181 -126.926L156.265 -131.747L166.349 -132.313L176.433 -127.129L186.517 -127.322L196.601 -129.337L201.859 -126.4L206.685 -122.652L216.769 -120.854L226.852 -119.872L231.812 -116.311L229.146 -106.221L226.852 -101.345L223.32 -96.132L219.393 -86.0428L216.769 -84.0034L206.685 -79.8771L199.798 -75.9535L196.601 -74.8627L188.005 -75.9535L186.517 -76.2085L176.433 -81.7877L166.349 -83.2662L156.265 -84.664L147.519 -86.0428L146.181 -86.216L141.953 -86.0428L136.097 -85.7421L135.004 -86.0428L126.014 -88.7381L117.152 -96.132L115.93 -97.6799L105.878 -106.221L105.846 -106.252L95.7619 -109.011L85.678 -110.62L75.5941 -111.436L72.3275 -106.221L75.5941 -104.766L85.678 -99.523L90.3722 -96.132L91.6622 -86.0428L85.678 -79.0191L82.3725 -75.9535L75.5941 -67.4847L73.9992 -65.8642L75.5941 -59.0649L76.7576 -55.7749L75.5941 -47.8097L75.1825 -45.6857L69.279 -35.5964L65.5102 -29.6709L63.4458 -25.5071L57.4264 -15.4178L55.4263 -12.2317L47.3592 -5.32858L45.3425 4.76072V4.76072L35.2585 4.97089L34.8851 4.76072L25.1746 -4.95489L15.0908 1.39762L5.84719 4.76072L5.00687 5.08619L-5.07703 8.19108L-15.1609 14.5736L-15.5488 14.85L-25.2448 21.4877L-35.3287 24.5702L-36.2741 24.9393L-45.4126 31.3L-54.9363 35.0285L-55.4965 35.2747L-65.5804 41.5145L-72.7832 45.1178L-75.6643 46.1616L-85.7482 48.095L-95.8321 46.9863L-105.916 45.1178V45.1178L-116 38.7197L-126.084 35.0285L-128.894 45.1178L-133.051 55.2071L-134.68 65.2964L-136.168 69.6204L-146.252 68.2111L-156.335 66.6546L-161.377 65.2964L-166.419 64.3155L-176.503 59.9154L-186.587 61.1977L-191.629 65.2964L-196.095 75.3856L-196.671 75.9972L-206.755 79.1691L-209.636 85.4749L-216.839 89.6099L-226.923 93.7534L-231.201 95.5642Z" stroke="#DADADA" stroke-opacity="0.1" stroke-width="0.69" stroke-linejoin="round"/>
<path d="M67.7508 115.743L65.51 119.147L55.4261 119.428L49.5438 115.743L45.3422 108.361L35.2583 111.329L25.1744 111.495L15.0905 108.569L13.4099 105.654L15.0905 104.213L25.1744 99.8886L35.2583 100.875L45.3422 104.486L47.8071 105.654L55.4261 110.168L65.51 112.121L67.7508 115.743Z" stroke="#DADADA" stroke-opacity="0.1" stroke-width="0.69" stroke-linejoin="round"/>
<path d="M382.244 115.742L378.114 117.637L368.03 119.68L357.946 116.764L355.765 115.742L350.21 105.653L347.862 101.139L337.778 102.092L327.694 99.3583L317.61 98.5608L307.526 101.984L297.881 105.653L297.442 106.122L287.359 109.517L277.275 110.432L267.191 111.043L257.107 110.8L247.023 109.82L236.939 109.233L230.601 105.653L226.855 99.0945L226.005 95.5633L226.855 94.5091L236.939 86.4829L239.763 85.474L247.023 82.9162L257.107 78.9006L264.355 75.3847L267.191 74.2206L277.275 65.2955V65.2955L285.723 55.2062L286.206 45.1169L284.256 35.0276L287.359 30.2797L297.442 26.7727L298.283 24.9384L297.442 23.8763L287.359 18.4524L286.238 14.8491L287.359 14.5673L297.442 13.9999L307.526 13.728L317.61 14.1559L325.979 4.75977L327.694 3.84923L337.778 0.3261L347.862 2.85613L349.256 4.75977L347.862 6.98539L339.242 14.8491L338.391 24.9384L340.98 35.0276L339.296 45.1169L342.555 55.2062L347.458 65.2955L347.862 66.7368L349.122 75.3847L351.447 85.474L355.425 95.5633L357.946 96.6843L368.03 97.6045L378.114 99.4438L384.979 105.653L382.244 115.742Z" stroke="#DADADA" stroke-opacity="0.1" stroke-width="0.69" stroke-linejoin="round"/>
<path d="M72.832 125.832L65.5108 130.784L55.4269 128.549L52.3579 125.832L45.343 120.724L35.2591 120.819L25.1752 121.34L15.0913 122.08L8.11019 125.832L5.00745 127.736L-5.07644 126.109L-5.335 125.832L-8.78375 115.743L-5.07644 110.138L-1.87521 105.654L5.00745 97.1472L7.13038 95.5645L15.0913 85.8007L15.3795 85.4752L15.0913 84.6345L12.8729 75.3859L15.0913 72.2151L25.1752 71.8251L35.2591 73.7929L37.3697 75.3859L43.0287 85.4752L45.343 89.1924L50.9712 95.5645L55.4269 97.6258L65.5108 98.7694L75.5947 101.762L80.7318 105.654L82.3173 115.743L75.5947 119.106L72.832 125.832Z" stroke="#DADADA" stroke-opacity="0.1" stroke-width="0.69" stroke-linejoin="round"/>
<path d="M388.192 139.8L397.888 135.92L388.192 131.161L378.108 132.136L368.024 132.952L357.94 133.397L350.377 135.92L357.94 138.442L368.024 139.228L378.108 139.955L388.192 139.8Z" stroke="#DADADA" stroke-opacity="0.1" stroke-width="0.69" stroke-linejoin="round"/>
<path d="M477.079 146.01L468.868 150.177L462.62 146.01L458.784 139.922L456.835 135.921L458.784 131.988L468.868 127.784L478.119 135.921L477.079 146.01Z" stroke="#DADADA" stroke-opacity="0.1" stroke-width="0.69" stroke-linejoin="round"/>
<path d="M482.003 156.099L478.947 159.702L468.863 164.127L458.779 157.016L457.736 156.099L448.695 149.622L443.565 146.01L439.251 135.92L444.013 125.831L448.695 122.593L458.779 118.555L468.863 119.088L478.947 124.193L480.8 125.831L486.164 135.92L486.366 146.01L482.003 156.099Z" stroke="#DADADA" stroke-opacity="0.1" stroke-width="0.69" stroke-linejoin="round"/>
<path d="M409.803 166.188L408.362 173.755L404.581 166.188L408.362 156.098H408.362V156.098L409.803 166.188Z" stroke="#DADADA" stroke-opacity="0.1" stroke-width="0.69" stroke-linejoin="round"/>
<path d="M120.867 166.188L115.932 169.931L114.685 166.188L115.932 165.196L120.867 166.188Z" stroke="#DADADA" stroke-opacity="0.1" stroke-width="0.69" stroke-linejoin="round"/>
<path d="M-5.07598 188.96L-3.22384 186.366L3.60085 176.276L5.00791 174.384L11.4026 166.187L5.44634 156.098L5.00791 155.975L4.64777 156.098L-5.07598 159.989L-15.1599 161.838L-23.2921 166.187L-19.0101 176.276L-15.1599 185.104L-12.6389 186.366L-5.07598 188.96Z" stroke="#DADADA" stroke-opacity="0.1" stroke-width="0.69" stroke-linejoin="round"/>
<path d="M398.278 187.528L399.488 186.364L408.362 176.713L418.446 177.05H428.53L429.971 176.274L438.614 169.068L443.875 166.185L438.614 162.01L432.9 156.096L428.53 152.452L421.904 146.007L420.592 135.917L420.738 125.828L418.446 115.739V115.739L408.362 113.641L399.539 115.739L398.278 116.227L388.194 121.15L378.111 123.654L368.027 124.456L357.943 123.657L347.859 121.967L337.775 122.189L327.691 118.261L317.607 123.81L317.282 125.828L317.607 126.549L321.057 135.917L327.691 140.863L337.775 145.151L339.792 146.007L347.859 151.181L357.943 152.733L368.027 154.341L373.405 156.096L369.707 166.185L368.027 166.69L357.943 172.557L355.509 176.274L357.943 178.991L367.523 186.364L368.027 186.565L378.111 188.766L388.194 191.796L398.278 187.528Z" stroke="#DADADA" stroke-opacity="0.1" stroke-width="0.69" stroke-linejoin="round"/>
<path d="M5.00363 200.553L10.2473 196.454L11.2823 186.365L15.0875 181.055L25.1714 176.276V176.276L35.2553 166.747L35.8665 166.187L35.2553 163.664L25.1714 156.962L24.6112 156.097L17.4146 146.008L15.0875 144.901L9.749 146.008L5.00363 146.992L-5.08026 151.263L-15.1642 150.856L-25.2481 151.511L-35.332 151.933L-41.8776 146.008L-45.4158 140.698L-48.3434 135.919L-52.1384 125.829L-53.6237 115.74L-54.8695 105.651L-55.4997 104.93L-56.7602 105.651L-65.5836 107.509L-75.6675 115.46L-75.8967 115.74L-76.3252 125.829L-75.6675 128.158L-73.7283 135.919L-72.2347 146.008L-70.9407 156.097L-70.4388 166.187L-68.9449 176.276L-70.2377 186.365L-75.6675 194.212L-78.5486 196.454L-75.6675 201.499L-65.5836 197.23L-64.5752 196.454L-55.4997 189.469L-52.397 186.365L-45.4158 181.586L-35.332 178.798L-30.6051 186.365L-25.2481 191.129L-20.6863 196.454L-15.1642 200.455L-5.08026 201.343L5.00363 200.553Z" stroke="#DADADA" stroke-opacity="0.1" stroke-width="0.69" stroke-linejoin="round"/>
<path d="M94.2266 196.456L85.672 204.482L75.5881 202.193L73.5851 196.456L75.5881 193.965L80.7023 186.366L85.672 181.394L95.7559 183.969L97.3269 186.366L95.7559 192.151L94.2266 196.456Z" stroke="#DADADA" stroke-opacity="0.1" stroke-width="0.69" stroke-linejoin="round"/>
<path d="M420.648 216.636L418.448 220.541L408.364 218.317L407.955 216.636L408.364 215.425L412.001 206.546L418.448 196.709L419.224 196.457L428.532 194.439L432.313 196.457L428.532 206.546V206.546L420.648 216.636Z" stroke="#DADADA" stroke-opacity="0.1" stroke-width="0.69" stroke-linejoin="round"/>
<path d="M240.554 216.634L236.933 220.818L229.14 216.634L236.933 211.274L240.554 216.634Z" stroke="#DADADA" stroke-opacity="0.1" stroke-width="0.69" stroke-linejoin="round"/>
<path d="M237.324 216.633L236.934 217.085L236.093 216.633L236.934 216.055L237.324 216.633Z" stroke="#DADADA" stroke-opacity="0.1" stroke-width="0.69" stroke-linejoin="round"/>
<path d="M298.045 226.724L297.434 234.291L296.697 226.724L297.434 225.793L298.045 226.724Z" stroke="#DADADA" stroke-opacity="0.1" stroke-width="0.69" stroke-linejoin="round"/>
<path d="M249.765 226.721L247.021 229.857L239.539 226.721L236.937 226.065L226.853 220.126L220.676 216.632L216.769 212.49L206.685 212.468L197.369 216.632L196.601 217.001L186.517 219.27L176.433 219.404L173.962 216.632L170.443 206.543L173.249 196.454L172.216 186.364L176.433 183.185L186.517 185.588L191.199 186.364L196.601 187.178L206.685 191.409L211.727 196.454L216.769 201.261L226.853 202.244L236.937 205.374L238.054 206.543L245.103 216.632L247.021 222.08L249.765 226.721Z" stroke="#DADADA" stroke-opacity="0.1" stroke-width="0.69" stroke-linejoin="round"/>
<path d="M151.801 267.082L146.18 270.259L136.096 273.132L126.012 274.853L115.928 275.987L105.845 270.689L103.452 267.082L105.624 256.993L105.845 256.432L113.03 246.904L109.352 236.814L115.928 234.249L117.009 236.814L126.012 241.859L136.096 240.126L146.18 240.006L154.061 236.814L156.264 235.396L166.348 231.109L174.331 236.814L176.432 242.82L186.516 246.57L186.833 246.904L186.516 250.008L176.432 249.191L166.348 256.282L165.928 256.993L156.264 264.143L151.801 267.082Z" stroke="#DADADA" stroke-opacity="0.1" stroke-width="0.69" stroke-linejoin="round"/>
<path d="M329.765 297.349L327.694 300.25L317.61 304.401L311.12 297.349L307.526 291.928L304.52 287.26L297.442 281.844L291.214 277.171L287.358 275.089L277.275 274.741L267.191 272.216L257.281 267.081L257.107 266.975L256.627 267.081L247.023 271.667L236.939 271.801L226.855 275.374L224.285 277.171L217.331 287.26L216.771 287.933L206.687 293.942L196.603 293.369L186.519 289.641L176.436 289.257L166.352 289.883L156.268 290.623L146.184 297.349V297.349L136.1 298.4L126.016 299.39L115.932 300.548L105.848 300.494L99.4795 297.349L95.7643 295.414L89.9881 287.26L85.6805 281.641L82.811 277.171L79.664 267.081L76.8066 256.992L77.4502 246.903L75.5966 237.561L75.291 236.814L68.9758 226.724L68.5709 216.635L65.8078 206.546L65.5127 202.51L64.9756 196.456L65.5127 193.862L68.3625 186.367L75.5966 184.087L83.4012 176.278L85.6805 172.932L95.7643 166.559L96.2445 166.189L105.848 160.544L112.535 156.099L115.932 154.547L126.016 156.057L126.103 156.099L136.1 161.422L146.184 166.007L146.417 166.189L156.268 172.066L166.352 168.556L171.478 166.189L176.436 163.863L186.519 165.383L188.746 166.189L196.603 168.045L206.687 168.084L216.771 167.858L226.855 170.692L235.09 176.278L236.939 178.392L247.023 185.378L247.661 186.367L252.59 196.456L257.107 200.133L267.191 199.176L275.993 206.546L277.275 209.985L279.054 206.546L285.415 196.456L287.358 192.519L289.199 186.367L297.442 178.982L302.882 176.278L307.526 173.892L314.729 176.278L314.885 186.367L317.61 195.826L317.998 196.456L321.812 206.546L327.694 214.393L329.216 216.635L331.283 226.724L329.879 236.814L330.255 246.903L331.535 256.992L337.778 263.339L346.698 267.081L347.862 267.364L357.946 274.396L359.735 277.171L357.946 278.558L347.862 286.216L345.878 287.26L337.778 290.842L329.765 297.349Z" stroke="#DADADA" stroke-opacity="0.1" stroke-width="0.69" stroke-linejoin="round"/>
<path d="M518.794 367.972L509.196 375.668L499.112 375.268L489.393 367.972L489.028 366.72L484.517 367.972L478.944 369.433L475.528 367.972L468.86 365.354L461.577 357.882L458.776 355.243L448.692 351.303L440.11 347.793L438.608 347.25L432.468 337.704L429.722 327.615L428.525 322.078L425.719 317.525L421.057 307.436L418.441 303.743L412.424 297.347L408.357 289.896L407.404 287.258L403.875 277.168L403.439 267.079L408.357 261.098L418.441 258.411L427.904 267.079L428.525 268.007L438.608 272.004L445.602 277.168L448.692 279.831L458.776 279.92L468.86 279.639L478.944 282.007L489.028 281.336L499.112 281.175L505.25 277.168L509.196 274.037L516.091 267.079L519.28 264.607L529.363 258.102L539.447 261.474L540.2 267.079L539.447 272.124L539.146 277.168L538.945 287.258L539.35 297.347L539.447 298.961L541.749 307.436L540.223 317.525L539.447 319.255L537.232 327.615L535.395 337.704L530.11 347.793L529.363 348.514L526.45 357.882L519.28 366.728L518.794 367.972Z" stroke="#DADADA" stroke-opacity="0.1" stroke-width="0.69" stroke-linejoin="round"/>
<path d="M220.698 388.152L216.771 393.064L211.441 388.152L216.771 379.047L220.698 388.152Z" stroke="#DADADA" stroke-opacity="0.1" stroke-width="0.69" stroke-linejoin="round"/>
<path d="M219.8 418.419L216.764 427.996L212.097 418.419L216.764 414.974L219.8 418.419Z" stroke="#DADADA" stroke-opacity="0.1" stroke-width="0.69" stroke-linejoin="round"/>
<path d="M231.861 428.508L226.854 434.139L216.77 437.611L206.686 437.325L199.433 428.508L200.013 418.419L205.634 408.33L205.287 398.24L200.853 388.151L200.48 378.062L203.506 367.973L197.615 357.883L197.616 347.794L206.686 339.626L216.77 338.444L226.797 347.794L226.854 348.142L229.247 357.883L228.165 367.973L228.252 378.062L235.063 388.151L236.938 392.331L239.235 398.24L236.938 405.627L235.511 408.33L233.184 418.419L231.861 428.508Z" stroke="#DADADA" stroke-opacity="0.1" stroke-width="0.69" stroke-linejoin="round"/>
<path d="M75.5912 442.802L79.4696 438.598L75.5912 434.994L69.2888 438.598L75.5912 442.802Z" stroke="#DADADA" stroke-opacity="0.1" stroke-width="0.69" stroke-linejoin="round"/>
<path d="M499.118 448.962L499.521 448.689L499.118 448.016L489.034 445.086L478.95 445.699L472.227 448.689L478.95 455.415L489.034 452.893L499.118 448.962Z" stroke="#DADADA" stroke-opacity="0.1" stroke-width="0.69" stroke-linejoin="round"/>
<path d="M65.5105 457.768L71.1827 448.687L65.5105 441.12L60.7339 448.687L65.5105 457.768Z" stroke="#DADADA" stroke-opacity="0.1" stroke-width="0.69" stroke-linejoin="round"/>
<path d="M218.108 448.688L216.763 448.989L215.323 448.688L206.679 447.823L196.595 443.544L192.968 438.598L191.584 428.509L191.217 418.42L191.245 408.331L192.709 398.241L193.052 388.152L190.521 378.063L188.856 367.973L186.511 364.093L181.469 357.884L179.834 347.795L185.096 337.706L186.511 330.368L187.376 327.616L186.511 325.935L181.785 317.527L176.427 313.129L166.344 317.254L166.063 317.527L156.26 322.798L146.176 322.654L136.092 319.728L126.008 323.238L115.924 327.187L114.804 327.616L105.84 334.635L95.7563 333.989L85.6724 329.058L79.9102 337.706L77.2349 347.795L75.5886 349.55L65.5047 354.084L58.0064 357.884L55.4208 359.085L45.3369 365.419L41.0459 367.973L35.253 372.591L31.2692 378.063L25.4657 388.152L25.1691 388.488L15.0852 391.778L10.2533 388.152L5.00131 383.393L-3.8221 378.063L-5.08258 373.579L-5.71283 367.973L-5.08258 363.77L-3.51398 357.884L-0.534951 347.795L5.00131 341.225L8.69054 337.706L15.0852 333.607L25.1691 329.569L35.253 328.932L40.5915 327.616L45.3369 325.013L50.4909 317.527L55.4208 310.801L58.7821 307.438L65.5047 299.511L67.2333 297.349L68.3282 287.259L65.5047 280.533L63.4879 277.17L55.4208 268.057L54.6247 267.081L55.4208 259.514L55.6075 256.991L55.7943 246.902L55.4208 246.342L45.3369 241.227L35.7981 236.813L35.253 236.471L31.705 226.724L35.253 221.808L45.3369 219.592L55.4208 220.388L56.6248 216.634L57.2943 206.545L55.7191 196.456L55.4208 195.801L52.318 186.367L55.4208 179.314L65.5047 176.866L75.5886 178.73L78.0405 176.277L84.4733 166.188L85.6724 161.363L88.22 156.099L95.7563 150.546L105.84 148.364L115.924 147.028L126.008 149.458L136.092 153.752L144.324 156.099L146.176 156.642L156.26 162.7L166.344 159.509L176.427 157.754L186.511 158.041L196.595 159.668L206.679 159.508L216.763 158.46L226.847 158.443L236.931 157.133L239.62 156.099L247.015 152.63L256.258 156.099L257.099 156.447L267.183 158.936L276.258 156.099L277.266 155.879L287.35 155.618L288.537 156.099L296.119 166.188L297.434 166.447L298.106 166.188L307.518 161.261L317.602 162.457L323.08 166.188L327.686 172.113L331.719 176.277L337.428 186.367L337.77 186.747L347.854 195.708L348.792 196.456L356.737 206.545L357.938 211.131L360.459 216.634L361.007 226.724L360.568 236.813L363.276 246.902L368.021 248.824L378.105 249.892L388.189 251.502L396.3 256.991L398.273 258.505L399.219 256.991L408.357 247.848L410.374 246.902L418.441 239.78L420.768 236.813L428.525 228.676L438.609 231.341L442.746 236.813L447.128 246.902L448.693 249.573L454.695 256.991L458.777 260.492L468.86 264.752L473.74 267.081L478.944 268.383L489.028 269.065L495.397 267.081L499.112 264.839L509.196 258.072L511.011 256.991L519.28 249.98L520.961 246.902L529.364 239.459L539.448 238.031L549.532 241.858L553.565 246.902L553.977 256.991L554.416 267.081L559.615 273.134L569.699 269.871L578.157 267.081L579.783 266.24L587.821 256.991L589.867 255.269L599.951 251.226L610.035 251.581L614.641 256.991L610.035 261.969L599.951 263.52L590.643 267.081L590.484 277.17L589.867 277.775L583.375 287.259L580.287 297.349L582.198 307.438L579.783 314.035L577.892 317.527L571.59 327.616L569.699 330.643L564.269 337.706L559.615 340.892L553.061 347.795L549.532 352.209L545.827 357.884L539.448 361.479L529.364 364.468L526.917 367.973L519.28 377.611L509.196 377.904L499.112 377.772L493.773 378.063L489.028 379.897L478.944 382.178L468.86 380.544L465.642 378.063L458.777 370.888L448.693 369.275L438.609 371.466L428.525 367.973V367.973L421.854 357.884L419.902 347.795L418.441 340.034L417.945 337.706L414.858 327.616L411.523 317.527L408.357 311.605L405.696 307.438L401.528 297.349L398.721 287.259L398.273 285.868L388.189 284.1L381.937 287.259L378.105 290.164L368.021 292.719L357.938 295.293L349.721 297.349L350.593 307.438L352.132 317.527L350.596 327.616L347.854 331.732L337.77 332.911L328.886 327.616L327.686 326.531L317.602 320.89L312.42 317.527L307.518 312.482L303.507 307.438L297.434 298.672L295.254 297.349L287.35 290.988L277.266 291.171L267.183 294.381L262.456 297.349L257.099 301.532L249.536 307.438L247.015 312.186L245.921 317.527L243.529 327.616L241.5 337.706L243.568 347.795L244.828 357.884L245.502 367.973L244.723 378.063L244.922 388.152L247.015 394.947L248.382 398.241L247.999 408.331L247.015 410.659L243.864 418.42L244.314 428.509L242.269 438.598L236.931 445.863L226.847 447.506L218.108 448.688Z" stroke="#DADADA" stroke-opacity="0.1" stroke-width="0.69" stroke-linejoin="round"/>
<path d="M499.117 471.241L500.73 468.867L509.201 461.02L510.713 458.778L519.285 450.411L520.568 448.688L524.327 438.599L519.285 428.913L518.164 428.51L509.201 425.147L504.719 428.51L499.117 429.972L489.033 432.147L478.949 432.189L468.865 429.901L458.781 432.238L448.697 437.076L442.935 438.599L438.613 440.761L428.53 445.536L424.928 448.688L426.978 458.778L428.53 461.3L437.838 468.867L438.613 469.46L448.697 470.701L458.781 472.23L468.865 474.527L478.949 475.677L489.033 474.921L499.117 471.241Z" stroke="#DADADA" stroke-opacity="0.1" stroke-width="0.69" stroke-linejoin="round"/>
<path d="M885.964 620.205L882.308 623.16L872.224 628.334L862.141 627.348L852.181 620.205L852.057 619.99L841.973 618.22L831.889 615.569L822.509 610.116L821.805 609.443L816.082 600.026L813.775 589.937L811.721 585.498L806.492 579.848L801.637 570.479L801.397 569.759L801.637 568.918L803.948 559.669L803.76 549.58L801.637 545.544L798.276 549.58L791.553 552.569L781.469 556.47L771.386 554.737L761.302 558.17L758.22 559.669L751.218 564.924L743.736 569.759L741.134 572.281L731.05 577.032L726.877 579.848L720.966 583.497L713.763 589.937L710.882 592.408L705.229 600.026L700.798 604.528L691.944 610.116L690.714 611.017L680.63 613.874L670.547 616.522L660.463 619.484L650.379 619.638L640.295 617.354L630.211 612.373L627.762 610.116L625.398 600.026L620.127 595.729L610.043 595.593L600.716 589.937L599.959 589.377L590.256 579.848L589.875 575.812L589.345 569.759L583.601 559.669L579.792 555.271L576.094 549.58L572.301 539.491L572.199 529.401L575.363 519.312L579.792 512.819L582.461 509.223L586.392 499.134L589.755 489.044L589.875 488.684L593.041 478.955L596.306 468.866L599.959 459.165L600.319 458.777L599.959 458.667L592.248 448.687L589.875 444.97L586.368 438.598L585.266 428.509L589.875 424.146L599.959 421.52L610.043 420.872L620.127 420.296L630.211 418.419V418.419L633.092 408.33L630.211 404.006L624.235 398.241L620.127 395.158L610.043 392.986L605.902 388.152L599.959 384.411L590.702 378.062L589.875 372.457L589.338 367.973L589.875 367.277L599.959 359.342L609.268 357.884L610.043 357.163L620.127 347.794L610.043 338.426L609.655 337.705L610.043 337.112L620.127 329.45L621.087 327.616L627.858 317.527L630.211 314.164L640.295 312.594L650.379 312.669L656.517 307.437L660.463 302.393L670.547 301.746L680.63 305.529L684.552 307.437L690.714 310.018L700.798 307.437L700.103 297.348L693.62 287.259L690.714 281.542L688.144 277.17L690.714 269.454L691.723 267.08L698.126 256.991L697.671 246.902L698.875 236.812L700.798 228.692L701.759 226.723L710.322 216.634L710.882 216.168L711.722 216.634L720.966 219.93L731.05 220.944L741.134 217.565L745.167 216.634L751.218 215.337L753.07 216.634L761.302 222.015L764.6 226.723L765.623 236.812L761.302 245.396L760.24 246.902L759.356 256.991L751.218 264.857L750.428 267.08L744.772 277.17L744.361 287.259L742.733 297.348L744.721 307.437L748.107 317.527L742.702 327.616L744.495 337.705L751.218 345.552L753.59 347.794L761.302 355.51L761.932 357.884L764.771 367.973L769.098 378.062L770.457 388.152L771.386 392.566L772.58 398.241L775.631 408.33L771.386 416.091L768.283 418.419L761.302 421.199L753.051 418.419L752.293 408.33L751.218 402.121L747.856 398.241L743.445 388.152L744.648 378.062L745.167 367.973L745.84 357.884L741.134 352.839L731.05 357.379L730.474 357.884L720.966 367.676L720.678 367.973L710.882 376.769L709.144 378.062L700.798 387.375L700.395 388.152L698.592 398.241L699.718 408.33L700.798 412.654L705.544 418.419L710.882 422.96L719.415 428.509L720.966 430.751L728.025 438.598L731.05 439.439L741.134 440.409L751.218 445.734L761.302 448.327L761.895 448.687L771.386 455.862L773.232 458.777L780.125 468.866L781.469 471.498L785.156 478.955L787.392 489.044L789.873 499.134L791.553 507.205L792.339 509.223L793.725 519.312L795.839 529.401L801.637 537.403L811.721 537.939L813.555 539.491L821.805 541.88L831.889 548.35L833.061 549.58L841.973 558.496L843.373 559.669L847.707 569.759L847.311 579.848L852.057 585.229L862.141 588.75L872.224 589.937L882.308 582.506L892.392 582.793L900.247 589.937L901.636 600.026L894.673 610.116L892.392 612.854L885.964 620.205Z" stroke="#DADADA" stroke-opacity="0.1" stroke-width="0.69" stroke-linejoin="round"/>
<path d="M418.445 640.385L426.008 630.296L428.529 620.206V620.206L429.97 610.117L438.613 605.072L448.697 604.064L458.781 603.811L463.103 600.028L468.865 597.337L472.973 589.939L478.949 583.73L482.202 579.849L489.033 572.282L492.241 569.76L493.278 559.671L494.579 549.581L496.463 539.492L499.116 532.286L500.303 529.403L505.485 519.314L507.825 509.224L509.2 499.135V499.135L512.453 489.046L515.755 478.956L519.284 470.648L520.405 468.867L527.968 458.778L529.368 456.485L533.45 448.689L537.169 438.599L536.091 428.51L529.368 421.952L524.956 418.421L519.284 413.376L510.641 408.332L509.2 407.555L508.36 408.332L499.116 415.416L496.235 418.421L489.033 423.539L478.949 423.811L468.865 420.41L458.781 420.699L448.697 424.63L438.613 426.24L431.632 428.51L428.529 429.369L418.445 434.816L414.018 438.599L408.361 445.425L405.192 448.689L401.785 458.778L399.398 468.867L398.278 475.593L397.437 478.956L398.278 480.218L408.361 486.884L412.683 489.046L418.445 491.928L428.529 498.505L429.446 499.135L432.408 509.224L428.529 519.314V519.314L418.445 528.682L417.437 529.403L408.361 535.078L398.278 533.439L393.532 529.403L388.194 524.863L380.799 519.314L378.11 517.559L368.026 515.203L357.942 513.747L347.858 514.432L339.455 519.314L337.774 520.689L329.444 529.403L327.69 532.286L321.388 539.492L317.606 545.546L314.245 549.581L309.356 559.671L310.043 569.76L317.606 575.814L320.295 579.849L327.69 586.015L331.22 589.939L337.774 596.842L341.333 600.028L347.858 604.467L357.942 609.637L359.623 610.117L368.026 610.756L378.11 612.102L388.194 617.964L390.944 620.206L397.516 630.296L398.278 631.687L408.361 640.385H418.445Z" stroke="#DADADA" stroke-opacity="0.1" stroke-width="0.69" stroke-linejoin="round"/>
<path d="M363.681 1614V1608.96L357.941 1604.98L353.836 1598.87L348.253 1588.78L347.857 1588.23L341.746 1578.69L338.868 1568.6L337.773 1566.17L332.731 1558.51L328.355 1548.42L327.69 1547.05L322.24 1538.33L318.176 1528.24L317.606 1527.28L311.325 1518.15L307.522 1513.72L302.761 1508.06L297.438 1499.13L297.22 1497.97L296.551 1487.88L295.76 1477.79L294.64 1467.71L295.626 1457.62L297.438 1449.38L298.454 1447.53L303.002 1437.44L305.656 1427.35L307.401 1417.26L307.522 1416.96L313.416 1407.17L316.09 1397.08L317.362 1386.99L317.606 1383.67L318.575 1376.9L321.621 1366.81L326.205 1356.72L327.69 1353.55L333.758 1346.63L337.773 1341.18L344.28 1336.54L347.857 1330.88L349.956 1326.46L353.879 1316.37L355.862 1306.28L357.4 1296.19L357.941 1288.53L358.577 1286.1L357.941 1281.39L357.552 1276.01L347.857 1266.63L347.332 1265.92L340.376 1255.83L337.773 1249.54L337.095 1245.74L337.41 1235.65L337.773 1233.49L342.04 1225.56L342.523 1215.47L341.323 1205.38L340.361 1195.29L337.773 1189.98L336.624 1185.21L332.027 1175.12L327.69 1166.08L326.791 1165.03L317.606 1155.36L317.21 1154.94L313.6 1144.85L310.759 1134.76L307.522 1127.26L307.047 1124.67L305.43 1114.58L303.944 1104.49L300.371 1094.4L297.438 1091.11L291.798 1084.31L287.354 1081.23L280.098 1074.22L277.27 1073.05L267.186 1064.82L266.356 1064.13L258.704 1054.05L257.102 1051.37L249.203 1043.96L247.018 1040.68L236.935 1033.87V1033.87L226.851 1025.05L226.311 1023.78L225.825 1013.69L224.484 1003.6L216.767 993.509V993.509L215.962 983.42L216.767 977.599L219.472 973.331L225.988 963.242L226.851 953.573L227.626 953.152L233.797 943.063L232.155 932.974L234.228 922.885L236.935 917.04L239.006 912.795L241.951 902.706L244.099 892.617L245.848 882.527L245.928 872.438L245.105 862.349L242.915 852.26L236.935 848.61L226.851 849.662L225.047 852.26L216.767 858.039L206.683 856.571L203.099 852.26L204.694 842.17L204.597 832.081L196.599 822.412L190.652 832.081L186.515 833.136L176.431 833.88L166.347 832.081L156.263 832.429L146.18 833.973L136.096 834.158L126.012 835.814L115.928 835.419L112.082 832.081L111.246 821.992L105.844 817.788L103.517 811.902L98.4655 801.813L95.7601 797.85L94.6681 791.724L90.7181 781.635L85.6761 776.842L80.5112 771.545L75.5922 767.877L65.5084 765.542L55.4245 763.626L45.3406 762.289L35.2567 763.312L25.1728 764.8L15.0889 765.013L5.00501 765.742L-4.634 771.545L-5.0789 771.601L-15.1628 773.533L-25.2467 780.581L-26.8882 781.635L-35.3306 782.833L-45.4145 788.228L-47.8318 791.724L-54.6094 801.813L-55.4983 802.863L-63.9186 811.902L-65.5823 813.199L-75.6661 821.48L-76.1224 821.992L-85.75 823.976L-95.8339 823.63L-105.918 822.435L-108.304 821.992L-116.002 816.092L-125.677 811.902L-126.086 811.381L-136.169 805.176L-146.253 804.141L-156.337 802.309L-160.143 801.813L-166.421 798.549L-176.505 798.385L-186.589 800.596L-189.203 801.813L-196.673 802.257L-206.757 802.614L-216.841 804.975L-226.925 810.031L-229.392 811.902L-237.008 813.367L-247.092 815.418L-254.389 821.992L-257.176 822.768L-267.26 823.702L-277.344 822.532L-281.709 821.992L-287.428 819.253L-297.512 816.72L-307.596 817.183L-317.086 811.902L-317.68 810.431L-320.788 801.813L-327.763 796.599L-337.847 794.029L-346.274 791.724L-347.931 790.653L-358.015 783.025L-360.085 781.635L-368.099 773.874L-370.519 771.545L-378.183 763.057L-381.258 761.456L-388.267 756.359L-396.91 751.367L-398.351 749.155L-408.435 741.92L-410.618 741.278L-418.518 733.76L-428.602 732.987L-438.686 734.623L-448.77 734.067L-455.119 731.188L-458.854 726.306L-460.717 721.099L-460.378 711.01L-458.854 704.452L-454.757 711.01L-448.77 715.763L-439.551 721.099L-438.686 721.503L-437.094 721.099L-433.701 711.01L-438.686 703.732L-445.28 700.92L-445.997 690.831L-447.005 680.742L-448.77 677.799L-453.056 670.653L-458.854 668.524L-467.356 660.563L-468.938 657.054L-476.141 650.474L-479.022 647.898L-488.561 640.385L-489.106 638.833L-499.19 630.295V630.295L-509.274 622.041L-509.994 620.206L-511.141 610.117L-515.036 600.028L-519.357 596.467L-529.441 598.01L-530.034 600.028L-531.651 610.117L-531.79 620.206L-534.769 630.295L-539.525 633.409L-542.098 630.295L-544.803 620.206L-545.64 610.117L-549.016 600.028L-549.609 599.397L-550.448 589.938L-552.311 579.849L-553.09 569.76L-551.294 559.671L-550.35 549.581L-550.571 539.492L-550.551 529.403L-550.301 519.313L-549.609 516.575L-543.337 509.224L-540.01 499.135L-539.525 497.276L-533.146 489.046L-530.412 478.956L-529.664 468.867L-529.678 458.778L-529.441 456.332L-524.685 448.689L-521.703 438.599L-520.55 428.51L-519.975 418.421L-519.914 408.331L-522.092 398.242L-529.441 391.955L-530.482 388.153L-533.091 378.064L-539.525 369.397L-540.182 367.974L-549.609 360.004L-551.166 357.885L-553.204 347.796L-550.317 337.706L-550.092 327.617L-549.609 321.852L-548.202 317.528L-544.629 307.439L-542.941 297.349L-541.234 287.26L-539.692 277.171L-539.525 275.948L-536.125 267.082L-529.801 256.992L-529.441 256.337L-520.9 246.903L-519.357 241.438L-509.274 237.752L-508.415 236.814L-499.19 227.583L-498.512 226.724L-491.831 216.635L-491.257 206.546L-491.411 196.457L-489.106 194.904L-483.628 186.367L-479.022 182.125L-473.879 176.278L-468.938 173.353L-459.334 166.189L-458.854 165.842L-450.05 156.099L-448.77 153.551L-442.627 146.01L-440.246 135.921L-438.686 132.075L-432.614 125.832L-428.602 118.054L-426.191 115.742L-418.518 113.146L-408.435 109.166L-398.351 107.309L-394.884 105.653L-388.267 103.847L-378.183 99.9395L-372.113 95.5639L-368.099 93.4509L-361.406 85.4745L-358.015 81.9095L-353.597 75.3851L-347.931 68.6151L-342.846 65.2961L-338.39 55.2067L-342.531 45.1173L-347.348 35.0281L-347.931 32.8026L-349.501 24.9389L-347.931 21.5759L-342.792 14.8495L-337.847 11.1477L-327.763 6.04207L-325.897 4.76028L-319.587 -5.32893L-317.68 -10.5125L-313.764 -15.4183L-310.708 -25.5075L-307.596 -32.6237L-303.106 -35.5967L-297.512 -38.0544L-288.826 -45.6861L-287.428 -46.4178L-277.344 -50.0275L-267.26 -54.2231L-265.121 -55.7753L-257.176 -58.1459L-247.092 -63.9264L-243.842 -65.8645L-237.008 -74.1793L-233.172 -75.9539L-231.56 -86.0433L-228.821 -96.1324L-226.925 -103.606L-226.325 -106.222L-221.582 -116.311L-226.925 -124.183L-228.169 -126.4L-234.036 -136.49L-237.008 -144.561L-238.094 -146.579L-247.092 -153.305L-254.591 -156.668L-257.176 -157.594L-260.911 -156.668L-267.26 -155.775L-277.344 -152.184L-287.428 -150.732L-297.512 -149.942L-307.596 -155.458L-308.2 -156.668L-307.596 -162.827L-306.351 -166.757L-302.813 -176.847L-305.17 -186.936L-307.596 -194.036L-308.523 -197.025L-317.68 -204.405L-320.234 -207.115L-318.209 -217.204L-317.68 -218.804L-313.523 -227.293L-313.749 -237.382L-310.646 -247.472L-307.596 -252.624L-305.715 -257.561L-303.706 -267.65L-302.248 -277.74L-303.595 -287.829L-306.418 -297.918L-307.596 -303.383L-308.204 -308.007L-312.283 -318.097L-315.581 -328.186L-308.283 -338.275L-307.596 -339.028L-298.39 -348.364L-297.512 -348.681L-287.428 -349.585L-277.344 -350.349L-267.26 -350.407L-257.176 -349.894L-247.092 -348.759L-244.498 -348.364L-237.008 -345.365L-226.925 -344.174L-216.841 -345.229L-206.757 -347.599L-196.673 -348.085L-186.589 -344.409L-176.505 -339.103L-166.421 -340.441L-156.337 -340.668L-146.638 -338.275L-146.253 -338.075L-136.169 -336.938L-126.086 -337.208L-121.233 -338.275L-116.002 -339.89L-105.918 -342.018L-95.8339 -343.461L-85.75 -347.511L-84.0008 -348.364L-81.7808 -358.454L-85.75 -368.543V-368.543L-86.4637 -378.632L-85.8602 -388.721L-85.75 -389.267L-75.6661 -397.435L-74.7764 -398.811L-73.8654 -408.9L-75.6661 -414.505L-77.1067 -418.989L-85.75 -427.958L-87.0653 -429.079L-95.8339 -434.532L-103.287 -439.168L-105.918 -441.496L-116.002 -447.996L-117.045 -449.257L-124.134 -459.346L-126.086 -460.409L-136.169 -462.606L-146.253 -466.409L-154.398 -469.436L-156.337 -469.821L-166.421 -472.187L-176.505 -475.73L-181.738 -479.525L-186.589 -488.876L-187.077 -489.614L-186.589 -490.302L-178.638 -499.704L-176.505 -500.951L-166.421 -503.339L-156.337 -506.236L-146.253 -506.766L-136.169 -504.57L-126.086 -502.89L-116.002 -501.331L-110.96 -499.704L-105.918 -498.714L-100.876 -499.704L-96.3941 -509.793L-98.0261 -519.882L-105.918 -524.79L-110.96 -529.971L-105.918 -534.887L-95.8339 -532.374L-89.5315 -529.971L-85.75 -527.339L-75.6661 -524.333L-65.5823 -523.181L-57.0109 -519.882L-55.4983 -519.626L-53.1713 -519.882L-45.4145 -523.763L-42.6798 -529.971L-35.3306 -539.831L-35.0652 -540.061L-25.2467 -544.786L-15.1628 -547.299L-5.0789 -550.051L-4.83881 -550.15L-5.0789 -551.831L-6.75955 -560.239L-15.1628 -566.877L-25.2467 -563.923L-35.3306 -561.09L-43.1736 -560.239L-45.4145 -559.836L-55.4983 -559.634L-63.0613 -560.239L-65.5823 -560.449L-67.599 -560.239L-75.6661 -559.432L-85.75 -558.955L-95.8339 -558.881L-105.918 -557.765L-116.002 -554.942L-126.086 -554.046L-136.169 -554.458L-146.253 -551.638L-147.903 -550.15L-156.337 -544.42L-166.421 -542.661L-176.505 -543.698L-186.589 -543.26L-196.673 -542.367L-206.757 -544.424L-210.992 -550.15L-206.757 -553.266L-199.683 -560.239L-196.673 -562.642L-186.589 -568.873L-183.438 -570.329L-176.505 -577.123L-171.895 -580.418L-176.505 -582.082L-186.589 -582.812L-196.673 -583.991L-204.028 -590.507L-203.534 -600.596L-196.673 -605.758L-186.589 -610.438L-186.19 -610.686L-184.138 -620.775L-185.214 -630.864L-180.315 -640.953V-645.998" stroke="#DADADA" stroke-opacity="0.1" stroke-width="0.69" stroke-linejoin="round"/>
<path d="M384.753 1614V1608.96L378.112 1601.17L375.922 1598.87L368.766 1588.78L368.028 1588.38L357.944 1583.63L353.898 1578.69L349.205 1568.6L347.86 1565.49L344.293 1558.51L338.918 1548.42L337.776 1546.01L333.706 1538.33L330.374 1528.24L327.692 1522.68L325.171 1518.15L317.609 1511.53L314.496 1508.06L307.525 1498.95L306.826 1497.97L305.828 1487.88L307.525 1480.13L308.029 1477.79L307.525 1471.59L306.917 1467.71L307.525 1463.82L308.552 1457.62L314.955 1447.53L317.609 1442.94L319.66 1437.44L322.172 1427.35L323.874 1417.26L322.926 1407.17L322.305 1397.08L324.127 1386.99L324.308 1376.9L325.768 1366.81L327.692 1362.05L331.859 1356.72L337.776 1349.6L342.974 1346.63L347.86 1343.61L354.859 1336.54L357.944 1327.65L358.715 1326.46L368.028 1320.39L370.738 1316.37L371.219 1306.28L374.305 1296.19L378.112 1288.86L378.824 1286.1L381.024 1276.01L384.414 1265.92L388.196 1258.08L389.204 1255.83L390.835 1245.74L389.017 1235.65L388.196 1234.02L382.324 1225.56L378.112 1218.52L373.385 1215.47L368.028 1211.74L361.382 1205.38L360.938 1195.29L367.111 1185.21L357.944 1178.82L355.423 1175.12L348.625 1165.03L347.86 1157.1L347.68 1154.94L347.86 1154.41L354.343 1144.85L357.944 1139.24L368.028 1144.85L371.147 1134.76L374.155 1124.67L378.112 1119.93L380.848 1114.58L378.112 1108.39L368.028 1107.76L357.944 1113.15L355.868 1114.58L347.86 1119.87L340.401 1114.58L338.535 1104.49L338.065 1094.4L347.86 1087.26L351.106 1084.31L347.86 1078.98L344.628 1074.22L337.776 1069.03L333.957 1064.13L327.692 1057.77L324.08 1054.05L317.609 1048.18L312.836 1043.96L307.525 1038.76L302.775 1033.87L297.441 1029.23L292.153 1023.78L287.357 1018.98L281.497 1013.69L278.134 1003.6L278.742 993.509L277.273 988.992L275.6 983.42L276.87 973.331L277.273 971.866L287.357 963.242L278.091 953.152L277.273 952.85L267.189 945.262L265.23 943.063L257.105 935.768L255.027 932.974L251.097 922.884L249.993 912.795L251.885 902.706L256.96 892.617L255.7 882.527L256.696 872.438L257.105 871.657L262.526 862.349L267.189 855.748L269.72 852.259L272.254 842.17L267.189 837.801L259.965 832.081L257.105 822.166L257.006 821.992L247.021 819.676L236.937 821.058L226.854 815.868L224.564 811.902L221.173 801.813L226.854 796.74L236.937 793.178L237.627 791.724L236.937 789.201L232.4 781.634L226.854 775.058L223.629 771.545L223.537 761.456L226.854 757.599L236.937 755.191L247.021 752.106L248.172 751.367L257.105 745.114L262.21 741.277L264.839 731.188L267.189 728.389L277.273 724.11L287.357 725.022L289.46 721.099L288.768 711.01L290.078 700.92L297.441 691.9L306.134 690.831L307.525 690.307L317.609 687.77L327.692 687.576L333.243 690.831L337.776 697.512L347.86 699.322L350.381 700.92L357.944 704.617L368.028 710.556L378.112 708.549L387.443 700.92L383.01 690.831L378.112 681.56L377.686 680.742L378.112 679.661L384.746 670.652L379.427 660.563L378.112 660.269L373.79 660.563L368.028 661.236L357.944 666.02L347.86 666.806L337.776 664.061L327.692 664.075L317.609 664.903L308.744 660.563L307.525 656.864L303.615 650.474L301.138 640.385L297.441 630.295L294.597 640.385L295.021 650.474L292.346 660.563L287.357 664.723L277.273 663.87L267.189 662.15L261.9 670.652L257.105 676.141L252.063 680.742L247.021 687.277L244.635 690.831L236.937 695.106L226.854 697.809L216.77 698.656L206.686 698.398L196.602 698.25L187.959 700.92L186.518 701.491L176.434 702.619L174.917 700.92L168.355 690.831L166.35 686.059L163.415 680.742L160.504 670.652L157.629 660.563L156.266 657.2L151.734 650.474L146.182 645.215L136.098 642.12L126.015 641.996L115.931 640.628L115.426 640.385L107.948 630.295L105.847 620.837L105.719 620.206L102.754 610.117L105.847 602.865L107.909 600.027L115.37 589.938L115.931 588.929L122.19 579.849L126.015 575.41L134.319 569.76L133.348 559.67L136.098 555.887L141.701 549.581L136.098 547.954L126.015 546.965L115.931 544.777L109.406 539.492L105.847 534.835L103.132 529.403L96.099 519.313L95.7629 518.988L86.0043 509.224L85.679 508.631L80.4744 499.135L75.9312 489.045L75.5951 478.956V478.956L65.5112 469.643L65.0529 468.867L64.5028 458.778L55.4273 453.998L50.6507 458.778L45.3434 463.164L39.8813 468.867L35.2595 472.335L26.0159 468.867L25.1756 468.57L24.6715 468.867L15.0917 477.995L13.2583 478.956L5.00785 484.297L-4.06766 478.956L-5.07607 478.363L-14.5668 468.867L-15.1599 465.504L-16.0003 458.778L-19.0383 448.688L-24.5933 438.599L-25.2439 437.047L-33.1669 428.51L-35.3277 426.618L-45.4116 423.924L-55.4955 420.943L-65.5794 420.438L-68.4605 418.42L-75.6633 410.013L-77.1039 408.331L-85.7472 399.683L-86.6639 398.242L-89.4141 388.153L-88.2682 378.063L-85.7472 376.229L-80.7053 378.063L-75.6633 378.941L-75.2151 378.063L-73.577 367.974L-75.6633 360.407L-78.7661 357.885L-85.7472 347.796V347.796V347.796L-76.3836 337.706L-77.0542 327.617L-80.3451 317.528L-82.7814 307.438L-85.7472 301.833L-95.8311 297.88L-105.915 303.655L-115.999 306.808L-117.119 307.438L-126.083 313.647L-132.288 307.438L-127.675 297.349L-126.083 291.846L-124.144 287.26L-117.92 277.171L-115.999 275.618L-108.843 267.081L-105.915 258.826L-98.3521 267.081L-95.8311 270.865L-85.7472 275.153L-75.6633 271.405L-65.5794 267.081V267.081L-55.4955 261.196L-49.8934 256.992L-45.4116 251.227L-42.3865 246.903L-36.3361 236.813L-35.3277 235.132L-30.7442 226.724L-25.2439 220.671L-24.1234 216.635L-15.1599 211.428L-5.07607 207.934L5.00785 209L15.0917 213.418L20.4774 206.546L21.2625 196.456L25.1756 190.875L33.3203 186.367L35.2595 184.966L40.3015 176.278L45.3434 171.466L50.3854 166.188L53.8455 156.099L45.3434 146.01V146.01L35.2595 139.452L25.1756 138.497L15.0917 136.905L5.00785 141.296L-5.07607 144.417L-15.1599 141.139L-25.2439 137.882L-28.959 135.921L-35.3277 131.078L-38.605 125.831L-39.9113 115.742L-37.6548 105.653L-35.3277 100.608L-32.1765 95.5636L-25.9314 85.4742L-34.521 75.3848L-35.3277 75.1328L-36.5141 75.3848L-45.4116 77.6106L-55.4955 85.4742V85.4742L-65.5794 93.2986L-72.1043 95.5636L-75.6633 97.245L-84.5609 105.653L-85.7472 107.205L-94.621 115.742L-94.9908 125.831L-95.8311 129.194L-99.498 135.921L-104.234 146.01L-105.915 148.028L-115.999 147.844L-122.481 156.099L-126.083 161.704L-126.96 166.188L-132.133 176.278L-136.167 181.883L-141.545 186.367L-146.251 187.564L-152.668 186.367L-156.334 185.659L-166.418 184.962L-169.5 186.367L-176.502 193.786L-184.065 196.456L-186.586 196.839L-192.636 196.456L-196.67 196.164L-198.015 196.456L-206.754 201.141L-210.272 206.546L-216.838 210.826L-225.353 216.635L-226.922 218.446L-237.006 224.396L-239.166 226.724L-247.09 230.835L-252.653 236.813L-257.173 242.775L-262.512 246.903L-267.257 250.266L-277.341 251.947L-287.425 252.956L-289.946 246.903L-293.587 236.813L-297.509 229.751L-299.19 226.724L-305.517 216.635L-307.593 214.357L-316.901 206.546L-317.677 205.668L-327.761 200.492L-337.845 199.627L-347.928 200.737L-358.012 203.335L-368.096 204.384L-378.18 205.104L-384.903 206.546L-388.264 207.463L-398.348 209.192L-408.432 211.523L-418.516 211.999L-426.919 206.546L-427.836 196.456L-422.357 186.367L-418.516 180.388L-416.383 176.278L-408.432 167.285L-398.348 168.023H-388.264L-383.942 166.188L-378.18 162.825L-369.217 156.099L-370.394 146.01L-378.18 136.083L-378.326 135.921L-383.802 125.831L-379.684 115.742L-378.18 114.81L-368.096 109.363L-364.159 105.653L-358.808 95.5636L-358.012 94.4658L-354.079 85.4742L-348.465 75.3848L-347.928 74.7437L-337.845 68.173L-331.689 65.2958L-327.761 61.1134L-323.934 55.2064L-317.677 46.5475L-315.839 45.117L-317.677 44.3994L-327.761 43.4591L-337.845 41.5423L-341.031 35.0278L-343.01 24.9386L-337.845 18.3274L-332.348 14.8492L-327.761 12.7612L-317.677 6.29407L-308.313 4.76001L-307.593 3.41481L-304.614 -5.3292L-297.509 -10.2163L-290.031 -15.4186L-287.425 -17.275L-280.658 -25.5078L-277.341 -32.234L-275.746 -35.597L-267.257 -41.5084L-261.581 -45.6864L-257.173 -48.7297L-247.265 -55.7756L-247.09 -55.8502L-237.006 -59.8488L-226.922 -63.4054L-216.838 -65.7251L-216.283 -65.8648L-206.754 -73.2877L-204.198 -75.9542L-206.754 -79.2872L-210.864 -86.0436L-216.838 -94.7029L-217.479 -96.1326L-217.038 -106.222L-216.838 -106.485L-206.754 -108.511L-203.585 -106.222L-196.67 -102.408L-186.586 -97.3863L-182.72 -96.1326L-176.502 -93.9428L-166.418 -94.5224L-156.334 -93.0809L-146.251 -86.4625L-136.167 -88.5287L-126.083 -89.4962L-115.999 -88.0301L-105.915 -88.4695L-95.8311 -88.4796L-85.7472 -92.2864L-79.336 -96.1326L-75.6633 -98.5142L-65.5794 -104.874L-55.4955 -104.142L-46.3283 -106.222L-45.4116 -106.284L-35.3277 -109.003L-25.2439 -115.504L-22.3627 -116.311L-15.1599 -117.627L-5.07607 -122.838L-0.206493 -126.401L5.00785 -127.433L15.0917 -128.668L25.1756 -127.94L35.2595 -130.693L43.3354 -136.49L45.3434 -137.117L55.4273 -136.804L65.5112 -137.928L75.5951 -139.518L85.679 -139.048L95.7629 -137.704L101.793 -136.49L105.847 -134.813L115.931 -135.214L119.802 -136.49L126.015 -137.851L136.098 -137.246L146.182 -137.81L156.266 -138.385L166.35 -138.211L172.799 -136.49L176.434 -134.682L186.518 -134.145L192.883 -136.49L196.602 -137.357L206.686 -139.445L216.77 -142.608L226.854 -142.469L229.787 -136.49L236.937 -131.208L242.445 -126.401L244 -116.311L240.263 -106.222L239.591 -96.1326L236.937 -88.7759L236.138 -86.0436L231.541 -75.9542L226.854 -70.9962L216.77 -70.6415L206.686 -71.3906L196.602 -69.4308L186.518 -70.2988L176.709 -75.9542L176.434 -76.1078L166.35 -79.0859L156.266 -80.4636L146.182 -81.6193L136.098 -81.4164L126.015 -83.3644L120.808 -86.0436L115.931 -89.4615L105.847 -90.1145L102.436 -86.0436L95.7629 -77.6357L94.4476 -75.9542L94.0211 -65.8648L95.7629 -60.6839L97.5082 -55.7756L96.2983 -45.6864L95.7629 -44.2451L92.7873 -35.597L88.6449 -25.5078L85.679 -20.1411L82.5544 -15.4186L78.9013 -5.3292L75.5951 4.76001V4.76001L69.5448 14.8492L65.5112 23.1989L64.8109 24.9386L62.8327 35.0278L61.4777 45.117L62.0735 55.2064L65.5112 63.6141L66.5916 65.2958L75.5951 70.5505L85.679 74.5442L90.721 75.3848L95.7629 77.5091L103.326 85.4742L105.847 87.1559L115.931 91.6155L126.015 95.0832L136.098 95.2032H146.182L156.266 94.4424L166.35 88.2768L176.434 85.7545L178.451 85.4742L186.518 82.9519L195.161 75.3848L196.602 74.264L206.686 65.6836L207.461 65.2958L216.77 60.2511L223.492 55.2064L226.854 53.2536L236.937 49.1528L240.779 45.117L241.699 35.0278L245.341 24.9386L246.807 14.8492L247.021 13.932L248.298 4.76001L247.021 2.56663L242.426 -5.3292L242.026 -15.4186L246.917 -25.5078L247.021 -25.9465L257.105 -31.5995L259.531 -25.5078L261.112 -15.4186L265.398 -5.3292L267.189 -3.52069L277.273 1.31244L287.357 1.37027L297.441 2.01527L307.525 2.21862L317.609 -0.618188L327.137 -5.3292L327.692 -5.63371L337.776 -8.60242L347.86 -10.3162L357.944 -9.30821L365.787 -5.3292L364.993 4.76001L357.944 14.8492V14.8492L356.205 24.9386L356.913 35.0278L357.944 37.4174L368.028 45.117L378.112 44.874L379.232 45.117L388.196 48.4116L398.28 55.0862L398.385 55.2064L408.364 63.0628L411.059 65.2958L418.448 74.1839L419.81 75.3848L424.716 85.4742L428.531 87.9096L434.294 85.4742L434.095 75.3848L438.369 65.2958L438.615 64.5998L448.699 62.151L453.353 65.2958L458.783 70.3403L461.35 75.3848L459.167 85.4742L458.783 87.0265L454.346 95.5636L458.783 98.3038L468.867 104.717L470.331 105.653L478.951 108.575L489.035 111.086L496.996 115.742L499.119 121.123L501.107 125.831L505.981 135.921L508.492 146.01L507.251 156.099L501.219 166.188L508.937 176.278L509.203 176.55L519.286 182.584L527.247 186.367L529.37 187.402L539.454 192.824L545.937 196.456L549.538 197.687L559.622 200.914L569.706 206L570.826 206.546L579.79 210.389L589.874 212.48L599.958 211.59L610.042 210.673L620.125 210.133L630.209 207.555L631.26 206.546L640.293 197.507L641.12 196.456L645.07 186.367L650.377 177.195L651.871 176.278L660.461 172.207L670.545 174.26L680.629 174.356L687.963 176.278L690.713 176.782L700.796 178.2L710.105 176.278L710.88 175.998L720.964 174.443L731.048 173.475L741.132 173.888L751.216 173.755L758.419 176.278L761.3 177.216L771.384 185.762L771.88 186.367L781.468 193.774L784.148 196.456L790.991 206.546L791.552 207.369L801.635 212.049L811.719 210.777L821.803 213.996L825.79 216.635L831.887 223.538L833.693 226.724L832.705 236.813L831.887 238.024L821.803 246.252L811.719 244.885L801.635 240.176L800.123 246.903L794.55 256.992L791.552 260.691L787.475 267.081L784.523 277.171L786.323 287.26L790.711 297.349L791.552 298.47L801.635 307.438V307.438L811.719 311.566L821.803 315.726L831.887 316.407L839.45 317.528L837.649 327.617L837.976 337.706L832.559 347.796L831.887 348.313L821.803 352.026L818.244 357.885L813.271 367.974L812.748 378.063L816.588 388.153L819.891 398.242L821.803 401.413L831.887 407.919L832.607 408.331L838.915 418.42L841.971 420.614L852.055 422.288L862.139 424.888L869.569 428.51L872.223 429.182L875.024 428.51L882.307 426.394L892.391 425.405L902.474 427.619L908.726 418.42L911.953 408.331L912.558 404.007L913.242 398.242L912.558 396.407L902.474 390.334L899.693 388.153L892.391 380.847L890.868 378.063L887.568 367.974L892.391 358.323L892.679 357.885L892.663 347.796L892.391 347.555L883.403 337.706L882.307 331.4L881.569 327.617L882.307 326.608L891.695 317.528L892.391 317.217L900.332 307.438L902.474 302.538L904.385 297.349L912.558 291.183L921.077 287.26L922.642 286.251L932.726 283.897L942.81 286.821L952.894 286.895L962.978 280.053L963.495 277.171L962.978 276.67L953.394 267.081L952.894 266L948.432 256.992L950.877 246.903L952.894 244.186L962.978 239.966L966.455 236.813L966.661 226.724L962.978 219.662L961.297 216.635L956.495 206.546L952.894 197.577L951.924 196.456L952.561 186.367L948.359 176.278L942.81 169.938L932.726 167.051L930.141 166.188L922.642 164.487L912.558 157.628L910.795 156.099L905.174 146.01L902.474 138.631L901.089 135.921L899.296 125.831L898.023 115.742L899.113 105.653L902.236 95.5636L897.814 85.4742L898.876 75.3848L902.474 66.5975L912.558 66.1398L922.642 73.2416L924.63 75.3848L924.44 85.4742L924.246 95.5636L932.726 102.182L938.13 105.653L942.81 109.669L948.237 115.742L947.196 125.831L952.894 134.78L953.497 135.921L958.875 146.01L962.978 153.653L963.842 156.099L964.13 166.188L966.039 176.278L973.062 184.832L973.957 186.367L978.562 196.456L983.146 202.167L985.289 206.546L988.106 216.635L993.229 223.447L994.753 226.724L999.649 236.813L1003.31 242.544L1005 246.903L1004.93 256.992L1003.39 267.081L1009.69 277.171L1013.4 279.638L1022.6 287.26L1023.48 289.606L1033.57 293.448L1043.65 296.888L1043.95 297.349L1046.16 307.438L1049.24 317.528L1053.73 325.085L1054.69 327.617L1056.24 337.706L1055.97 347.796L1055.02 357.885L1055.42 367.974L1057.12 378.063L1062.48 388.153L1063.82 390.465L1068 398.242L1069.32 408.331L1068.56 418.42L1073.9 421.913L1077.71 418.42L1083.98 415.973L1094.07 415.841L1099.17 418.42L1104.15 420.611L1109.31 428.51L1114.24 437.385L1115.21 438.599L1119.75 448.688L1120.81 458.778L1122.71 468.867L1124.32 472.49L1128.16 478.956L1133.31 489.045L1134.4 490.423L1144.49 497.207L1146.33 499.135L1151.14 509.224L1152.33 519.313L1154.52 529.403L1154.57 529.781L1157.66 539.492L1160.55 549.581L1164.66 558.746L1165.39 559.67L1170.98 569.76L1174.74 573.135L1184.82 575.648L1194.91 573.971L1200.57 569.76L1194.91 566.308L1191.4 559.67L1188.55 549.581L1184.82 542.036L1181.66 539.492L1176.29 529.403L1184.82 526.791L1186.62 529.403L1189.26 539.492L1194.91 541.52L1204.99 545.598L1209.35 549.581L1214.41 559.67L1215.08 561.112L1220.8 569.76L1225.16 579.187L1226.02 579.849L1235.24 582.657L1241.07 589.938L1236.19 600.027L1235.24 602.698L1230.47 600.027L1225.16 598.332L1222.56 600.027L1218.65 610.117L1225.16 613.414L1235.24 613.759L1240.36 620.206L1242.91 630.295L1245.33 631.827L1255.41 638.883L1256.9 640.385L1265.49 645.133L1275.58 647.776L1285.66 648.729L1295.75 647.311L1305.83 644.76L1315.34 640.385L1315.91 640.135L1326 638.882L1336.08 639.457L1346.17 640.234L1356.25 636.991L1363.82 630.295L1366.33 628.788L1376.42 625.565L1386.5 623.857L1396.59 620.65L1406.67 620.231L1416.75 623.078L1426.84 620.653L1427.08 620.206L1436.92 615.336L1447 614.103L1457.09 616.69L1467.17 612.091L1476.94 620.206L1468.33 630.295L1467.17 633.21L1462.36 640.385L1464.09 650.474L1463.71 660.563L1458.81 670.652L1457.09 676.741L1455.59 680.742L1452.74 690.831L1449.02 700.92L1447 707.708L1443.18 711.01L1436.92 715.697L1432.29 721.099L1427.59 731.188L1426.84 732.161L1416.75 738.432L1407.81 741.277L1406.67 741.775L1396.59 745.863L1386.5 749.655L1380.51 751.367L1376.42 753.354L1366.33 759.233L1363.29 761.456L1356.25 768.838L1353.25 771.545L1346.17 777.791L1341.12 781.634L1336.08 785.774L1326 791.724V791.724L1322.47 801.813L1319.64 811.902L1315.91 815.631L1309.57 811.902L1305.83 810.913L1295.75 803.254L1294.17 801.813L1286.49 791.724L1285.66 790.726L1277.41 791.724L1275.58 792.317L1272.35 801.813L1275.58 804.241L1284.43 811.902L1285.66 813.564L1291.05 821.992L1291.92 832.081L1290.25 842.17L1287.06 852.259L1285.66 853.788L1276.25 862.349L1275.58 862.744L1265.49 866.496L1255.51 872.438L1255.41 872.54L1245.33 878.834L1235.24 881.063L1229.24 872.438L1232.69 862.349L1235.24 858.055L1237.79 852.259L1238.77 842.17L1236.81 832.081L1235.24 830.128L1226.84 821.992L1225.16 819.89L1220.6 811.902L1215.08 805.952L1204.99 809.913L1204.07 811.902L1202.71 821.992L1199.6 832.081L1198.34 842.17L1204.99 848.512L1209.18 852.259L1214.01 862.349L1213.66 872.438L1205.47 882.527L1204.99 882.918L1194.91 883.631L1184.82 883.414L1174.74 887.348L1167.87 892.617L1164.66 894.616L1154.57 896.172L1144.49 893.593L1134.4 895.622L1124.32 898.567L1114.24 901.229L1113.21 902.706L1111.89 912.795L1113.58 922.884L1114.24 923.881L1122.7 932.974L1124.32 938.859L1125.55 943.063L1125.38 953.152L1124.32 954.834L1120 963.242L1124.32 972.7L1124.57 973.331L1127.53 983.42L1124.32 992.733L1124.14 993.509L1122.86 1003.6L1121.38 1013.69L1120.45 1023.78L1119.31 1033.87L1119.53 1043.96L1123.67 1054.05L1124.32 1056.24L1128.02 1064.13L1125.77 1074.22L1124.32 1076.63L1121.09 1084.31L1120.19 1094.4L1117.75 1104.49L1114.24 1110.57L1109.22 1114.58L1108.39 1124.67L1105.7 1134.76L1104.15 1138.47L1100.66 1144.85L1097.3 1154.94L1094.07 1161.22L1091.08 1165.03L1083.98 1169.97L1074 1175.12L1073.9 1175.2L1063.82 1183.27L1062.9 1185.21L1058.68 1195.29L1053.73 1201.53L1043.65 1203.57L1042.29 1205.38L1043.45 1215.47L1043.65 1215.73L1045.67 1215.47L1053.73 1213.42L1055.65 1215.47L1063.82 1221.46L1073.9 1216.39L1075.26 1215.47L1083.98 1209.26L1094.07 1211.6L1097.18 1215.47L1102.28 1225.56L1103.79 1235.65L1104.15 1236.32L1112 1245.74L1111.2 1255.83L1114.24 1260.09L1124.32 1260.66L1127.62 1265.92L1133.17 1276.01L1130.08 1286.1L1124.32 1288.67L1116.99 1286.1L1114.24 1285L1112.08 1286.1L1104.15 1289.53L1094.07 1295.78L1092.39 1296.19L1088.92 1306.28L1091.44 1316.37L1092.95 1326.46L1094.07 1327.09L1104.15 1328.86L1107.9 1326.46L1114.24 1317.38L1123.96 1326.46L1124.32 1326.66L1134.4 1334.15L1136.68 1336.54L1141.79 1346.63L1143.56 1356.72L1135.66 1366.81L1134.4 1370.85L1130.62 1376.9L1134.4 1378.76L1142.16 1386.99L1141.51 1397.08L1137.27 1407.17L1134.4 1410.66L1127.26 1417.26L1124.32 1419.15L1114.24 1426.67L1112.66 1427.35L1104.15 1432.49L1097.51 1437.44L1094.07 1439.75L1083.98 1441.71L1073.9 1444.83L1063.82 1447.14L1061.8 1447.53L1053.73 1449.51L1043.65 1455.4L1037.6 1457.62L1033.57 1460.22L1023.48 1466.24L1013.4 1459.82L1011.71 1457.62L1005.36 1447.53L1003.31 1445.85L993.229 1442.29L984.759 1437.44L983.146 1436.45L977.517 1437.44L973.062 1442.91L968.149 1437.44L962.978 1436.26L952.894 1434.52L942.81 1435.86L941.401 1437.44L942.81 1444.34L943.617 1447.53L952.894 1455.35L957.936 1457.62L962.978 1458.99L970.787 1467.71L973.062 1472.55L976.696 1477.79L979.414 1487.88L976.987 1497.97L974.59 1508.06L973.062 1511.62L969.963 1518.15L966.285 1528.24L962.978 1535L960.951 1538.33L955.073 1548.42L952.894 1555.37L952.463 1558.51L948.868 1568.6L945.678 1578.69L942.81 1586.32L932.726 1588.42L931.516 1588.78L922.642 1597L921.137 1598.87L918.147 1608.96V1614" stroke="#DADADA" stroke-opacity="0.1" stroke-width="0.69" stroke-linejoin="round"/>
</g>
<defs>
<clipPath id="clip0_719_40898">
<rect width="690.619" height="734.886" fill="white" transform="matrix(-0.848846 -0.52864 -0.52864 0.848846 579.719 365.089)"/>
</clipPath>
</defs>
</svg>
